<?xml version="1.0" standalone="no"?>
<!DOCTYPE svg PUBLIC "-//W3C//DTD SVG 20010904//EN"
 "http://www.w3.org/TR/2001/REC-SVG-20010904/DTD/svg10.dtd">
<svg version="1.0" xmlns="http://www.w3.org/2000/svg"
 width="512.000000pt" height="512.000000pt" viewBox="0 0 512.000000 512.000000"
 preserveAspectRatio="xMidYMid meet">

<g transform="translate(0.000000,512.000000) scale(0.100000,-0.100000)"
fill="#bd8888" stroke="none">
<path d="M2453 5105 c-79 -21 -131 -51 -193 -111 l-57 -54 -153 0 c-89 0 -169
-5 -192 -12 -48 -14 -130 -86 -148 -127 l-12 -29 -356 -4 c-388 -4 -386 -4
-479 -65 -62 -41 -105 -97 -133 -171 -20 -53 -20 -73 -18 -2165 l3 -2112 29
-58 c36 -71 99 -130 174 -165 l57 -27 1585 0 1585 0 57 27 c75 35 138 94 174
165 l29 58 3 2112 c2 2092 2 2112 -18 2165 -28 74 -71 130 -133 171 -93 61
-91 61 -479 65 l-356 4 -12 29 c-18 41 -100 113 -148 127 -23 7 -103 12 -192
12 l-153 0 -57 54 c-114 109 -263 150 -407 111z m209 -174 c43 -18 88 -56 140
-119 l26 -32 176 0 c188 0 234 -9 255 -48 7 -13 11 -99 11 -230 l0 -209 -26
-27 -27 -26 -657 0 -657 0 -27 26 -26 27 0 209 c0 131 4 217 11 230 21 39 67
48 255 48 l176 0 26 32 c51 61 96 101 137 119 54 24 151 24 207 0z m-982 -426
l0 -95 -282 0 c-297 -1 -302 -1 -326 -47 -16 -28 -17 -3918 -2 -3958 22 -58
-47 -55 1490 -55 1537 0 1468 -3 1490 55 15 40 14 3930 -2 3958 -24 46 -29 46
-325 47 l-283 0 0 95 0 95 329 0 c209 0 340 -4 358 -11 35 -13 79 -54 101 -94
16 -28 17 -191 20 -2080 2 -1384 -1 -2066 -8 -2099 -13 -62 -41 -101 -90 -126
-39 -20 -65 -20 -1590 -20 -1525 0 -1551 0 -1590 20 -49 25 -77 64 -90 126 -7
33 -10 715 -8 2099 3 1889 4 2052 20 2080 21 38 66 81 98 94 15 6 162 10 358
10 l332 1 0 -95z m25 -285 c25 -47 75 -99 119 -123 l41 -22 695 0 695 0 41 22
c44 24 94 76 119 123 l16 30 229 0 230 0 0 -1865 0 -1865 -1330 0 -1330 0 0
1865 0 1865 230 0 229 0 16 -30z"/>
<path d="M2540 4763 c-8 -3 -25 -15 -37 -26 -21 -19 -23 -29 -23 -142 0 -117
1 -122 25 -145 15 -14 37 -23 55 -23 18 0 40 9 55 23 24 23 25 28 25 145 0
113 -2 123 -22 142 -26 24 -56 34 -78 26z"/>
<path d="M2265 3520 c-11 -4 -108 -96 -215 -204 l-194 -195 -117 114 c-127
125 -150 136 -201 95 -31 -24 -39 -59 -23 -97 7 -15 78 -92 158 -170 128 -126
149 -143 178 -143 30 0 57 23 278 244 229 229 245 247 245 281 0 57 -59 97
-109 75z"/>
<path d="M2613 3430 c-44 -18 -59 -94 -24 -129 30 -30 63 -32 353 -29 266 3
266 3 292 27 42 40 32 101 -21 129 -26 14 -566 16 -600 2z"/>
<path d="M2635 3083 c-64 -16 -86 -93 -40 -138 l24 -25 469 0 c452 0 470 1
494 20 53 41 36 121 -29 139 -38 11 -876 14 -918 4z"/>
<path d="M2053 2438 l-203 -202 -113 112 c-92 91 -119 113 -143 114 -58 2 -93
-38 -85 -97 1 -11 71 -89 154 -172 208 -209 166 -216 460 75 126 125 236 241
243 259 25 58 -11 112 -75 113 -31 0 -52 -18 -238 -202z"/>
<path d="M2592 2527 c-30 -32 -29 -81 3 -112 l24 -25 296 0 296 0 24 25 c31
30 32 73 4 109 l-20 26 -303 0 -303 0 -21 -23z"/>
<path d="M2595 2175 c-34 -33 -34 -83 1 -116 l26 -24 444 -3 c491 -3 517 -1
538 49 17 40 9 75 -22 99 -24 19 -42 20 -494 20 l-469 0 -24 -25z"/>
<path d="M2265 1750 c-11 -4 -108 -96 -215 -204 l-194 -195 -117 114 c-97 96
-122 115 -148 115 -52 0 -86 -42 -82 -104 1 -25 274 -301 312 -317 16 -6 39
-9 51 -5 13 3 131 113 263 245 223 224 239 243 239 276 0 57 -59 97 -109 75z"/>
<path d="M2595 1645 c-49 -48 -23 -127 47 -140 18 -4 153 -5 300 -3 266 3 266
3 292 27 28 27 34 74 13 102 -28 36 -51 39 -342 39 l-286 0 -24 -25z"/>
<path d="M2621 1309 c-55 -22 -69 -92 -26 -134 l24 -25 469 0 c452 0 470 1
494 20 50 39 37 118 -22 139 -42 14 -903 14 -939 0z"/>
</g>
</svg>
